<?xml version="1.0" encoding="UTF-8" standalone="no"?>
<!DOCTYPE svg PUBLIC "-//W3C//DTD SVG 1.1//EN"
 "http://www.w3.org/Graphics/SVG/1.1/DTD/svg11.dtd">
<!-- Generated by graphviz version 2.49.3 (20211023.0002)
 -->
<!-- Pages: 1 -->
<svg width="1462pt" height="476pt"
 viewBox="0.00 0.00 1462.14 476.00" xmlns="http://www.w3.org/2000/svg" xmlns:xlink="http://www.w3.org/1999/xlink">
<g id="graph0" class="graph" transform="scale(1 1) rotate(0) translate(4 472)">
<polygon fill="white" stroke="transparent" points="-4,4 -4,-472 1458.14,-472 1458.14,4 -4,4"/>
<!-- [root] aws_acm_certificate.certificate (expand) -->
<g id="node1" class="node">
<title>[root] aws_acm_certificate.certificate (expand)</title>
<polygon fill="none" stroke="black" points="735,-324 547,-324 547,-288 735,-288 735,-324"/>
<text text-anchor="middle" x="641" y="-302.3" font-family="Times New Roman,serif" font-size="14.00">aws_acm_certificate.certificate</text>
</g>
<!-- [root] provider[&quot;registry.terraform.io/hashicorp/aws&quot;] -->
<g id="node12" class="node">
<title>[root] provider[&quot;registry.terraform.io/hashicorp/aws&quot;]</title>
<polygon fill="none" stroke="black" points="648,-36 390.77,-18 648,0 905.23,-18 648,-36"/>
<text text-anchor="middle" x="648" y="-14.3" font-family="Times New Roman,serif" font-size="14.00">provider[&quot;registry.terraform.io/hashicorp/aws&quot;]</text>
</g>
<!-- [root] aws_acm_certificate.certificate (expand)&#45;&gt;[root] provider[&quot;registry.terraform.io/hashicorp/aws&quot;] -->
<g id="edge1" class="edge">
<title>[root] aws_acm_certificate.certificate (expand)&#45;&gt;[root] provider[&quot;registry.terraform.io/hashicorp/aws&quot;]</title>
<path fill="none" stroke="black" d="M641.42,-287.97C642.58,-240.29 645.89,-105.18 647.32,-46.63"/>
<polygon fill="black" stroke="black" points="650.83,-46.39 647.58,-36.31 643.83,-46.22 650.83,-46.39"/>
</g>
<!-- [root] var.root_domain_name -->
<g id="node13" class="node">
<title>[root] var.root_domain_name</title>
<polygon fill="none" stroke="black" points="844,-180 704,-180 704,-144 850,-144 850,-174 844,-180"/>
<polyline fill="none" stroke="black" points="844,-180 844,-174 "/>
<polyline fill="none" stroke="black" points="850,-174 844,-174 "/>
<text text-anchor="middle" x="777" y="-158.3" font-family="Times New Roman,serif" font-size="14.00">var.root_domain_name</text>
</g>
<!-- [root] aws_acm_certificate.certificate (expand)&#45;&gt;[root] var.root_domain_name -->
<g id="edge2" class="edge">
<title>[root] aws_acm_certificate.certificate (expand)&#45;&gt;[root] var.root_domain_name</title>
<path fill="none" stroke="black" d="M649.99,-287.91C660.51,-268.92 679.3,-238.05 701,-216 712.09,-204.73 725.88,-194.3 738.64,-185.73"/>
<polygon fill="black" stroke="black" points="740.81,-188.49 747.28,-180.1 736.99,-182.63 740.81,-188.49"/>
</g>
<!-- [root] aws_cloudfront_distribution.s3_distribution (expand) -->
<g id="node2" class="node">
<title>[root] aws_cloudfront_distribution.s3_distribution (expand)</title>
<polygon fill="none" stroke="black" points="1362,-252 1100,-252 1100,-216 1362,-216 1362,-252"/>
<text text-anchor="middle" x="1231" y="-230.3" font-family="Times New Roman,serif" font-size="14.00">aws_cloudfront_distribution.s3_distribution</text>
</g>
<!-- [root] aws_s3_object.website_files (expand) -->
<g id="node11" class="node">
<title>[root] aws_s3_object.website_files (expand)</title>
<polygon fill="none" stroke="black" points="1207,-180 1031,-180 1031,-144 1207,-144 1207,-180"/>
<text text-anchor="middle" x="1119" y="-158.3" font-family="Times New Roman,serif" font-size="14.00">aws_s3_object.website_files</text>
</g>
<!-- [root] aws_cloudfront_distribution.s3_distribution (expand)&#45;&gt;[root] aws_s3_object.website_files (expand) -->
<g id="edge3" class="edge">
<title>[root] aws_cloudfront_distribution.s3_distribution (expand)&#45;&gt;[root] aws_s3_object.website_files (expand)</title>
<path fill="none" stroke="black" d="M1203.6,-215.88C1189.09,-206.81 1171.08,-195.55 1155.41,-185.76"/>
<polygon fill="black" stroke="black" points="1156.84,-182.52 1146.5,-180.19 1153.13,-188.46 1156.84,-182.52"/>
</g>
<!-- [root] aws_route53_record.route53_zone (expand) -->
<g id="node3" class="node">
<title>[root] aws_route53_record.route53_zone (expand)</title>
<polygon fill="none" stroke="black" points="1149,-324 937,-324 937,-288 1149,-288 1149,-324"/>
<text text-anchor="middle" x="1043" y="-302.3" font-family="Times New Roman,serif" font-size="14.00">aws_route53_record.route53_zone</text>
</g>
<!-- [root] aws_route53_record.route53_zone (expand)&#45;&gt;[root] aws_cloudfront_distribution.s3_distribution (expand) -->
<g id="edge4" class="edge">
<title>[root] aws_route53_record.route53_zone (expand)&#45;&gt;[root] aws_cloudfront_distribution.s3_distribution (expand)</title>
<path fill="none" stroke="black" d="M1088.99,-287.88C1115.15,-278.14 1148.09,-265.87 1175.65,-255.61"/>
<polygon fill="black" stroke="black" points="1177.01,-258.84 1185.16,-252.07 1174.57,-252.28 1177.01,-258.84"/>
</g>
<!-- [root] aws_route53_zone.route53_zone (expand) -->
<g id="node5" class="node">
<title>[root] aws_route53_zone.route53_zone (expand)</title>
<polygon fill="none" stroke="black" points="1081.5,-252 880.5,-252 880.5,-216 1081.5,-216 1081.5,-252"/>
<text text-anchor="middle" x="981" y="-230.3" font-family="Times New Roman,serif" font-size="14.00">aws_route53_zone.route53_zone</text>
</g>
<!-- [root] aws_route53_record.route53_zone (expand)&#45;&gt;[root] aws_route53_zone.route53_zone (expand) -->
<g id="edge5" class="edge">
<title>[root] aws_route53_record.route53_zone (expand)&#45;&gt;[root] aws_route53_zone.route53_zone (expand)</title>
<path fill="none" stroke="black" d="M1027.67,-287.7C1020.24,-279.3 1011.18,-269.07 1003.02,-259.86"/>
<polygon fill="black" stroke="black" points="1005.4,-257.27 996.15,-252.1 1000.16,-261.91 1005.4,-257.27"/>
</g>
<!-- [root] aws_route53_record.www (expand) -->
<g id="node4" class="node">
<title>[root] aws_route53_record.www (expand)</title>
<polygon fill="none" stroke="black" points="918.5,-324 753.5,-324 753.5,-288 918.5,-288 918.5,-324"/>
<text text-anchor="middle" x="836" y="-302.3" font-family="Times New Roman,serif" font-size="14.00">aws_route53_record.www</text>
</g>
<!-- [root] aws_route53_record.www (expand)&#45;&gt;[root] aws_route53_zone.route53_zone (expand) -->
<g id="edge6" class="edge">
<title>[root] aws_route53_record.www (expand)&#45;&gt;[root] aws_route53_zone.route53_zone (expand)</title>
<path fill="none" stroke="black" d="M871.47,-287.88C891.12,-278.39 915.72,-266.51 936.63,-256.42"/>
<polygon fill="black" stroke="black" points="938.16,-259.57 945.64,-252.07 935.12,-253.26 938.16,-259.57"/>
</g>
<!-- [root] var.www_domain_name -->
<g id="node14" class="node">
<title>[root] var.www_domain_name</title>
<polygon fill="none" stroke="black" points="856,-252 710,-252 710,-216 862,-216 862,-246 856,-252"/>
<polyline fill="none" stroke="black" points="856,-252 856,-246 "/>
<polyline fill="none" stroke="black" points="862,-246 856,-246 "/>
<text text-anchor="middle" x="786" y="-230.3" font-family="Times New Roman,serif" font-size="14.00">var.www_domain_name</text>
</g>
<!-- [root] aws_route53_record.www (expand)&#45;&gt;[root] var.www_domain_name -->
<g id="edge7" class="edge">
<title>[root] aws_route53_record.www (expand)&#45;&gt;[root] var.www_domain_name</title>
<path fill="none" stroke="black" d="M823.64,-287.7C817.77,-279.47 810.63,-269.48 804.16,-260.42"/>
<polygon fill="black" stroke="black" points="806.88,-258.21 798.22,-252.1 801.18,-262.28 806.88,-258.21"/>
</g>
<!-- [root] aws_route53_zone.route53_zone (expand)&#45;&gt;[root] provider[&quot;registry.terraform.io/hashicorp/aws&quot;] -->
<g id="edge8" class="edge">
<title>[root] aws_route53_zone.route53_zone (expand)&#45;&gt;[root] provider[&quot;registry.terraform.io/hashicorp/aws&quot;]</title>
<path fill="none" stroke="black" d="M958.97,-215.94C934.88,-197.53 894.91,-167.65 859,-144 799.21,-104.61 726.93,-63.03 684.36,-39.14"/>
<polygon fill="black" stroke="black" points="685.92,-36 675.49,-34.17 682.5,-42.11 685.92,-36"/>
</g>
<!-- [root] aws_route53_zone.route53_zone (expand)&#45;&gt;[root] var.root_domain_name -->
<g id="edge9" class="edge">
<title>[root] aws_route53_zone.route53_zone (expand)&#45;&gt;[root] var.root_domain_name</title>
<path fill="none" stroke="black" d="M931.36,-215.97C902.73,-206.14 866.55,-193.73 836.42,-183.39"/>
<polygon fill="black" stroke="black" points="837.46,-180.05 826.87,-180.11 835.19,-186.67 837.46,-180.05"/>
</g>
<!-- [root] aws_s3_bucket.cloudpros (expand) -->
<g id="node6" class="node">
<title>[root] aws_s3_bucket.cloudpros (expand)</title>
<polygon fill="none" stroke="black" points="478,-108 314,-108 314,-72 478,-72 478,-108"/>
<text text-anchor="middle" x="396" y="-86.3" font-family="Times New Roman,serif" font-size="14.00">aws_s3_bucket.cloudpros</text>
</g>
<!-- [root] aws_s3_bucket.cloudpros (expand)&#45;&gt;[root] provider[&quot;registry.terraform.io/hashicorp/aws&quot;] -->
<g id="edge10" class="edge">
<title>[root] aws_s3_bucket.cloudpros (expand)&#45;&gt;[root] provider[&quot;registry.terraform.io/hashicorp/aws&quot;]</title>
<path fill="none" stroke="black" d="M457.32,-71.97C497.48,-60.81 549.66,-46.32 589.29,-35.31"/>
<polygon fill="black" stroke="black" points="590.38,-38.64 599.07,-32.59 588.5,-31.89 590.38,-38.64"/>
</g>
<!-- [root] aws_s3_bucket_acl.cloudpros (expand) -->
<g id="node7" class="node">
<title>[root] aws_s3_bucket_acl.cloudpros (expand)</title>
<polygon fill="none" stroke="black" points="620,-180 432,-180 432,-144 620,-144 620,-180"/>
<text text-anchor="middle" x="526" y="-158.3" font-family="Times New Roman,serif" font-size="14.00">aws_s3_bucket_acl.cloudpros</text>
</g>
<!-- [root] aws_s3_bucket_acl.cloudpros (expand)&#45;&gt;[root] aws_s3_bucket.cloudpros (expand) -->
<g id="edge11" class="edge">
<title>[root] aws_s3_bucket_acl.cloudpros (expand)&#45;&gt;[root] aws_s3_bucket.cloudpros (expand)</title>
<path fill="none" stroke="black" d="M494.2,-143.88C476.89,-134.55 455.28,-122.92 436.74,-112.94"/>
<polygon fill="black" stroke="black" points="438.39,-109.85 427.92,-108.19 435.07,-116.01 438.39,-109.85"/>
</g>
<!-- [root] aws_s3_bucket_policy.cloudpros (expand) -->
<g id="node8" class="node">
<title>[root] aws_s3_bucket_policy.cloudpros (expand)</title>
<polygon fill="none" stroke="black" points="206,-324 0,-324 0,-288 206,-288 206,-324"/>
<text text-anchor="middle" x="103" y="-302.3" font-family="Times New Roman,serif" font-size="14.00">aws_s3_bucket_policy.cloudpros</text>
</g>
<!-- [root] aws_s3_bucket_policy.cloudpros (expand)&#45;&gt;[root] aws_s3_bucket.cloudpros (expand) -->
<g id="edge12" class="edge">
<title>[root] aws_s3_bucket_policy.cloudpros (expand)&#45;&gt;[root] aws_s3_bucket.cloudpros (expand)</title>
<path fill="none" stroke="black" d="M95.75,-287.56C83.57,-255.14 63.52,-185.16 98,-144 123.92,-113.06 226.02,-100.17 303.55,-94.81"/>
<polygon fill="black" stroke="black" points="304.09,-98.28 313.84,-94.13 303.63,-91.29 304.09,-98.28"/>
</g>
<!-- [root] aws_s3_bucket_versioning.cloudpros (expand) -->
<g id="node9" class="node">
<title>[root] aws_s3_bucket_versioning.cloudpros (expand)</title>
<polygon fill="none" stroke="black" points="340.5,-252 111.5,-252 111.5,-216 340.5,-216 340.5,-252"/>
<text text-anchor="middle" x="226" y="-230.3" font-family="Times New Roman,serif" font-size="14.00">aws_s3_bucket_versioning.cloudpros</text>
</g>
<!-- [root] aws_s3_bucket_versioning.cloudpros (expand)&#45;&gt;[root] aws_s3_bucket.cloudpros (expand) -->
<g id="edge13" class="edge">
<title>[root] aws_s3_bucket_versioning.cloudpros (expand)&#45;&gt;[root] aws_s3_bucket.cloudpros (expand)</title>
<path fill="none" stroke="black" d="M155.02,-215.92C136.98,-208.04 119.69,-196.59 109,-180 100.33,-166.55 98.76,-156.3 109,-144 133.53,-114.52 229.41,-101.37 303.67,-95.55"/>
<polygon fill="black" stroke="black" points="304.29,-99.01 314,-94.78 303.76,-92.03 304.29,-99.01"/>
</g>
<!-- [root] aws_s3_bucket_website_configuration.cloudpros (expand) -->
<g id="node10" class="node">
<title>[root] aws_s3_bucket_website_configuration.cloudpros (expand)</title>
<polygon fill="none" stroke="black" points="413.5,-180 118.5,-180 118.5,-144 413.5,-144 413.5,-180"/>
<text text-anchor="middle" x="266" y="-158.3" font-family="Times New Roman,serif" font-size="14.00">aws_s3_bucket_website_configuration.cloudpros</text>
</g>
<!-- [root] aws_s3_bucket_website_configuration.cloudpros (expand)&#45;&gt;[root] aws_s3_bucket.cloudpros (expand) -->
<g id="edge14" class="edge">
<title>[root] aws_s3_bucket_website_configuration.cloudpros (expand)&#45;&gt;[root] aws_s3_bucket.cloudpros (expand)</title>
<path fill="none" stroke="black" d="M297.8,-143.88C315.11,-134.55 336.72,-122.92 355.26,-112.94"/>
<polygon fill="black" stroke="black" points="356.93,-116.01 364.08,-108.19 353.61,-109.85 356.93,-116.01"/>
</g>
<!-- [root] aws_s3_object.website_files (expand)&#45;&gt;[root] aws_s3_bucket.cloudpros (expand) -->
<g id="edge15" class="edge">
<title>[root] aws_s3_object.website_files (expand)&#45;&gt;[root] aws_s3_bucket.cloudpros (expand)</title>
<path fill="none" stroke="black" d="M1030.71,-152.45C893.08,-139.13 628.67,-113.53 488.5,-99.96"/>
<polygon fill="black" stroke="black" points="488.51,-96.44 478.22,-98.96 487.83,-103.41 488.51,-96.44"/>
</g>
<!-- [root] local.dir (expand) -->
<g id="node15" class="node">
<title>[root] local.dir (expand)</title>
<ellipse fill="none" stroke="black" cx="1356" cy="-90" rx="98.28" ry="18"/>
<text text-anchor="middle" x="1356" y="-86.3" font-family="Times New Roman,serif" font-size="14.00">[root] local.dir (expand)</text>
</g>
<!-- [root] aws_s3_object.website_files (expand)&#45;&gt;[root] local.dir (expand) -->
<g id="edge16" class="edge">
<title>[root] aws_s3_object.website_files (expand)&#45;&gt;[root] local.dir (expand)</title>
<path fill="none" stroke="black" d="M1176.67,-143.97C1212.99,-133.24 1259.77,-119.42 1296.45,-108.59"/>
<polygon fill="black" stroke="black" points="1297.91,-111.81 1306.51,-105.62 1295.92,-105.09 1297.91,-111.81"/>
</g>
<!-- [root] local.mime_types (expand) -->
<g id="node16" class="node">
<title>[root] local.mime_types (expand)</title>
<ellipse fill="none" stroke="black" cx="1108" cy="-90" rx="131.88" ry="18"/>
<text text-anchor="middle" x="1108" y="-86.3" font-family="Times New Roman,serif" font-size="14.00">[root] local.mime_types (expand)</text>
</g>
<!-- [root] aws_s3_object.website_files (expand)&#45;&gt;[root] local.mime_types (expand) -->
<g id="edge17" class="edge">
<title>[root] aws_s3_object.website_files (expand)&#45;&gt;[root] local.mime_types (expand)</title>
<path fill="none" stroke="black" d="M1116.28,-143.7C1115.07,-135.98 1113.61,-126.71 1112.26,-118.11"/>
<polygon fill="black" stroke="black" points="1115.7,-117.44 1110.69,-108.1 1108.78,-118.53 1115.7,-117.44"/>
</g>
<!-- [root] provider[&quot;registry.terraform.io/hashicorp/aws&quot;] (close) -->
<g id="node17" class="node">
<title>[root] provider[&quot;registry.terraform.io/hashicorp/aws&quot;] (close)</title>
<ellipse fill="none" stroke="black" cx="519" cy="-378" rx="232.86" ry="18"/>
<text text-anchor="middle" x="519" y="-374.3" font-family="Times New Roman,serif" font-size="14.00">[root] provider[&quot;registry.terraform.io/hashicorp/aws&quot;] (close)</text>
</g>
<!-- [root] provider[&quot;registry.terraform.io/hashicorp/aws&quot;] (close)&#45;&gt;[root] aws_acm_certificate.certificate (expand) -->
<g id="edge18" class="edge">
<title>[root] provider[&quot;registry.terraform.io/hashicorp/aws&quot;] (close)&#45;&gt;[root] aws_acm_certificate.certificate (expand)</title>
<path fill="none" stroke="black" d="M548.53,-360.05C564.75,-350.75 585.05,-339.11 602.49,-329.1"/>
<polygon fill="black" stroke="black" points="604.38,-332.04 611.32,-324.03 600.9,-325.97 604.38,-332.04"/>
</g>
<!-- [root] provider[&quot;registry.terraform.io/hashicorp/aws&quot;] (close)&#45;&gt;[root] aws_route53_record.route53_zone (expand) -->
<g id="edge19" class="edge">
<title>[root] provider[&quot;registry.terraform.io/hashicorp/aws&quot;] (close)&#45;&gt;[root] aws_route53_record.route53_zone (expand)</title>
<path fill="none" stroke="black" d="M635.87,-362.42C715.16,-352.39 822.63,-338.55 926.74,-324.16"/>
<polygon fill="black" stroke="black" points="927.38,-327.61 936.8,-322.77 926.42,-320.67 927.38,-327.61"/>
</g>
<!-- [root] provider[&quot;registry.terraform.io/hashicorp/aws&quot;] (close)&#45;&gt;[root] aws_route53_record.www (expand) -->
<g id="edge20" class="edge">
<title>[root] provider[&quot;registry.terraform.io/hashicorp/aws&quot;] (close)&#45;&gt;[root] aws_route53_record.www (expand)</title>
<path fill="none" stroke="black" d="M592.12,-360.85C638.82,-350.54 699.62,-337.12 748.82,-326.25"/>
<polygon fill="black" stroke="black" points="749.81,-329.62 758.82,-324.04 748.3,-322.78 749.81,-329.62"/>
</g>
<!-- [root] provider[&quot;registry.terraform.io/hashicorp/aws&quot;] (close)&#45;&gt;[root] aws_s3_bucket_acl.cloudpros (expand) -->
<g id="edge21" class="edge">
<title>[root] provider[&quot;registry.terraform.io/hashicorp/aws&quot;] (close)&#45;&gt;[root] aws_s3_bucket_acl.cloudpros (expand)</title>
<path fill="none" stroke="black" d="M519.56,-359.85C520.77,-322.83 523.64,-235.18 525.1,-190.39"/>
<polygon fill="black" stroke="black" points="528.61,-190.34 525.44,-180.23 521.61,-190.11 528.61,-190.34"/>
</g>
<!-- [root] provider[&quot;registry.terraform.io/hashicorp/aws&quot;] (close)&#45;&gt;[root] aws_s3_bucket_policy.cloudpros (expand) -->
<g id="edge22" class="edge">
<title>[root] provider[&quot;registry.terraform.io/hashicorp/aws&quot;] (close)&#45;&gt;[root] aws_s3_bucket_policy.cloudpros (expand)</title>
<path fill="none" stroke="black" d="M426.68,-361.46C363.95,-350.91 280.64,-336.89 214.26,-325.72"/>
<polygon fill="black" stroke="black" points="214.61,-322.23 204.17,-324.02 213.45,-329.13 214.61,-322.23"/>
</g>
<!-- [root] provider[&quot;registry.terraform.io/hashicorp/aws&quot;] (close)&#45;&gt;[root] aws_s3_bucket_versioning.cloudpros (expand) -->
<g id="edge23" class="edge">
<title>[root] provider[&quot;registry.terraform.io/hashicorp/aws&quot;] (close)&#45;&gt;[root] aws_s3_bucket_versioning.cloudpros (expand)</title>
<path fill="none" stroke="black" d="M484.24,-360.15C430.86,-334.28 328.74,-284.79 270.18,-256.41"/>
<polygon fill="black" stroke="black" points="271.7,-253.26 261.17,-252.05 268.64,-259.56 271.7,-253.26"/>
</g>
<!-- [root] provider[&quot;registry.terraform.io/hashicorp/aws&quot;] (close)&#45;&gt;[root] aws_s3_bucket_website_configuration.cloudpros (expand) -->
<g id="edge24" class="edge">
<title>[root] provider[&quot;registry.terraform.io/hashicorp/aws&quot;] (close)&#45;&gt;[root] aws_s3_bucket_website_configuration.cloudpros (expand)</title>
<path fill="none" stroke="black" d="M503.06,-359.9C474.02,-329.2 409.86,-263.55 349,-216 335.05,-205.1 318.82,-194.35 304.42,-185.41"/>
<polygon fill="black" stroke="black" points="306.09,-182.33 295.73,-180.1 302.43,-188.3 306.09,-182.33"/>
</g>
<!-- [root] root -->
<g id="node18" class="node">
<title>[root] root</title>
<ellipse fill="none" stroke="black" cx="519" cy="-450" rx="49.29" ry="18"/>
<text text-anchor="middle" x="519" y="-446.3" font-family="Times New Roman,serif" font-size="14.00">[root] root</text>
</g>
<!-- [root] root&#45;&gt;[root] provider[&quot;registry.terraform.io/hashicorp/aws&quot;] (close) -->
<g id="edge25" class="edge">
<title>[root] root&#45;&gt;[root] provider[&quot;registry.terraform.io/hashicorp/aws&quot;] (close)</title>
<path fill="none" stroke="black" d="M519,-431.7C519,-423.98 519,-414.71 519,-406.11"/>
<polygon fill="black" stroke="black" points="522.5,-406.1 519,-396.1 515.5,-406.1 522.5,-406.1"/>
</g>
</g>
</svg>
